HIERARCHY
ROOT pelvis
{
  OFFSET 0 100 0
  CHANNELS 6 Xposition Yposition Zposition Zrotation Xrotation Yrotation
  JOINT pelvis_right_femur
  {
    OFFSET -10.78128 -3.44521 -0.5502486
    CHANNELS 3 Zrotation Xrotation Yrotation
    JOINT right_femur_tibia
    {
      OFFSET -0.8047443 -44.0398 -0.1307829
      CHANNELS 3 Zrotation Xrotation Yrotation
      JOINT right_tibia_foot
      {
        OFFSET 3.006224 -47.83518 -5
        CHANNELS 3 Zrotation Xrotation Yrotation
        End Site
        {
          OFFSET 0 -5 15
        }
      }
    }
  }
  JOINT pelvis_left_femur
  {
    OFFSET 10.78128 -3.44521 -0.5502486
    CHANNELS 3 Zrotation Xrotation Yrotation
    JOINT left_femur_tibia
    {
      OFFSET 0.8047443 -44.0398 -0.1307829
      CHANNELS 3 Zrotation Xrotation Yrotation
      JOINT left_tibia_foot
      {
        OFFSET -4.370144 -48.10324 -4.275266
        CHANNELS 3 Zrotation Xrotation Yrotation
        End Site
        {
          OFFSET 0 -5 15
        }
      }
    }
  }
  JOINT pelvis_spine1
  {
    OFFSET 0 6.468898 -3.129235
    CHANNELS 3 Zrotation Xrotation Yrotation
    JOINT spine1
    {
      OFFSET 0 23.15396 4.99043
      CHANNELS 3 Zrotation Xrotation Yrotation
      JOINT spine2
      {
        OFFSET 0 20.79997 -5.064912
        CHANNELS 3 Zrotation Xrotation Yrotation
        JOINT neck
        {
          OFFSET 0 14.38658 9.616178
          CHANNELS 3 Zrotation Xrotation Yrotation
          End Site
          {
            OFFSET 0 20 0
          }
        }
      }
      JOINT right_manubrium
      {
        OFFSET -5.722621 16.35077 3.967754
        CHANNELS 3 Zrotation Xrotation Yrotation
        JOINT right_clavicle
        {
          OFFSET -13.16364 1.694482 -4.693211
          CHANNELS 3 Zrotation Xrotation Yrotation
          JOINT right_humerus
          {
            OFFSET -28.5034 -0.3100689 -2.792744
            CHANNELS 3 Zrotation Xrotation Yrotation
            JOINT right_radius
            {
              OFFSET -25.15693 0.02248979 -1.271978
              CHANNELS 3 Zrotation Xrotation Yrotation
              End Site
              {
                OFFSET -15 0 0
              }
            }
          }
        }
      }
      JOINT left_manubrium
      {
        OFFSET 5.722621 16.35077 3.967754
        CHANNELS 3 Zrotation Xrotation Yrotation
        JOINT left_clavicle
        {
          OFFSET 13.16364 1.694482 -4.693211
          CHANNELS 3 Zrotation Xrotation Yrotation
          JOINT left_humerus
          {
            OFFSET 29.39168 -1.063119 -2.237045
            CHANNELS 3 Zrotation Xrotation Yrotation
            JOINT left_radius
            {
              OFFSET 24.59957 -0.9528479 0.9047498
              CHANNELS 3 Zrotation Xrotation Yrotation
              End Site
              {
                OFFSET 15 -0 -0
              }
            }
          }
        }
      }
    }
  }
}
MOTION
Frames: 9
Frame Time: 0.0416666666667
0 103.5113 0 1.311403 -2.178009 0.1478905 2.386888 -13.04223 8.29288 -0 38.48726 -0 -5.753224 -15.6458 -5.324052 -6.957086 11.87596 -23.83524 -0 6.149227 -0 0.1262795 -20.61814 22.7227 -4.046042 -3.266083 3.69362 2.584058 8.484496 -8.230023 0.5081578 23.01171 7.522805 3.363291 -23.55193 8.335805 6.347876 -19.88259 11.70393 86.87635 34.88416 -21.9129 -0 0 16.19999 -8.41895 8.290697 5.959979 3.548034 -18.69183 -3.171557 -100.3155 40.01547 29.61972 0 0 -19.8175 -11.87268 15.24029 28.45788
0.1945264 103.5642 1.128714 0.9127821 -1.674916 0.322664 3.13999 -14.74543 8.958497 -0 39.66021 -0 -5.566219 -15.48435 -5.246502 -6.755921 11.71318 -24.23408 -0 5.648793 -0 0.2706291 -21.02171 22.95958 -3.684803 -3.0341 3.771103 2.458035 8.221885 -8.024111 0.7342091 22.82869 7.584734 3.303177 -24.04002 8.840596 6.346872 -19.94383 11.61428 86.80335 35.18233 -21.56436 -0 0 16.58491 -7.606204 8.585971 5.41542 3.787954 -18.52404 -2.711194 -100.7477 39.90834 30.17931 0 0 -19.789 -11.02483 15.75766 28.00032
0.376824 103.4036 2.646782 0.5830609 -0.8626907 0.5959249 3.59974 -18.75842 8.010565 -0 36.03376 -0 -5.653166 -13.52837 -4.740569 -6.354702 12.50733 -23.52525 -0 4.831524 -0 -0.3853202 -22.60199 21.73382 -3.521303 -2.417961 3.544216 2.493879 7.803235 -7.996698 0.8843781 22.57267 7.80185 3.630487 -24.34411 9.042954 6.154654 -19.31555 11.40724 86.7985 35.13481 -21.68912 -0 0 15.87909 -7.882184 8.761901 5.243033 4.528909 -19.07232 -2.521878 -99.12829 39.20384 27.96663 0 0 -20.88945 -9.450808 16.14546 26.05186
0.5485372 103.0997 4.491929 0.1855555 -0.1009477 0.9614061 4.186117 -22.21418 7.494531 -0 33.48702 -0 -5.729519 -11.94081 -4.35646 -5.968296 13.13018 -23.01063 -0 4.371934 -0 -0.9297449 -23.73459 20.78191 -3.261509 -1.895601 3.348436 2.517922 7.443353 -7.959954 1.03302 22.30845 7.989754 3.867501 -24.69988 9.300723 6.024633 -18.82026 11.24281 86.79141 35.20366 -21.71629 -0 0 15.36242 -7.927974 8.986954 5.03428 5.124188 -19.43975 -2.274738 -97.95694 38.51944 26.36038 0 0 -21.68634 -7.975531 16.46188 24.3672
0.7088105 102.6673 6.695026 -0.2435768 0.643267 1.405204 4.791841 -25.53903 6.988339 -0 30.8669 -0 -5.866312 -10.32559 -4.002739 -5.559811 13.81362 -22.41154 -0 4.264909 -0 -1.584938 -24.66527 19.73021 -2.963986 -1.390544 3.110247 2.564617 7.110721 -7.957709 1.156279 22.03788 8.174059 4.099242 -25.02986 9.518427 5.90234 -18.28882 11.09162 86.81405 35.27945 -21.77767 -0 0 14.75873 -8.037182 9.22359 4.893785 5.671663 -19.79604 -2.059288 -96.75294 37.75025 24.7067 0 0 -22.44946 -6.512848 16.66554 22.67523
0.859234 102.1353 9.281618 -0.7204332 1.364905 1.91108 5.459237 -28.64092 6.558816 -0 28.34237 -0 -6.054852 -8.750446 -3.687362 -5.130857 14.51575 -21.75406 -0 4.60493 -0 -2.320227 -25.29978 18.62076 -2.607374 -0.9150872 2.836992 2.632007 6.814208 -7.985392 1.25376 21.75748 8.351668 4.310378 -25.34727 9.707889 5.797719 -17.74066 10.96028 86.86111 35.38385 -21.84864 -0 0 14.09948 -8.171064 9.481768 4.814788 6.147563 -20.10992 -1.865405 -95.57671 36.88165 23.09421 0 0 -23.11662 -5.052243 16.75369 20.98568
1.001794 101.5385 12.28817 -1.240979 2.041551 2.457477 6.182862 -31.42062 6.181903 -0 25.88678 -0 -6.306182 -7.232351 -3.416108 -4.681823 15.23248 -21.00363 -0 5.546908 -0 -3.16937 -25.55812 17.41475 -2.184628 -0.4772826 2.523254 2.721593 6.561386 -8.047752 1.317885 21.47517 8.51491 4.493683 -25.6326 9.849655 5.705571 -17.1643 10.85039 86.94581 35.50317 -21.94011 -0 0 13.3586 -8.359794 9.761396 4.819158 6.528568 -20.37673 -1.712336 -94.41516 35.90678 21.51099 0 0 -23.67424 -3.626277 16.70468 19.32579
1.139839 100.9266 15.756 -1.799044 2.64084 3.015089 6.961257 -33.6952 5.859867 -0 23.57232 -0 -6.624376 -5.840171 -3.200754 -4.218872 15.91829 -20.14004 -0 7.308564 -0 -4.142262 -25.30566 16.10481 -1.682805 -0.09411325 2.174256 2.831969 6.366543 -8.144757 1.34065 21.20171 8.651485 4.631826 -25.86877 9.927581 5.624828 -16.56333 10.768 87.07836 35.63029 -22.04869 -0 0 12.53252 -8.615313 10.06521 4.925611 6.775112 -20.574 -1.61609 -93.29113 34.82235 20.0019 0 0 -24.07284 -2.273783 16.49884 17.74277
1.278474 100.3693 19.72655 -2.37278 3.109746 3.543121 7.765819 -35.17921 5.582413 -0 21.51063 -0 -7.009056 -4.688489 -3.057889 -3.757448 16.47969 -19.14042 -0 10.18469 -0 -5.238599 -24.36659 14.69666 -1.093833 0.2101506 1.809007 2.957396 6.250316 -8.271038 1.312651 20.95815 8.740866 4.699399 -26.02831 9.918276 5.552459 -15.95111 10.72206 87.27018 35.74946 -22.16564 -0 0 11.62873 -8.953301 10.39373 5.156322 6.832177 -20.67055 -1.59834 -92.24338 33.64279 18.64416 0 0 -24.24446 -1.060936 16.11849 16.32
